<?xml version="1.0" encoding="UTF-8"?>
<!DOCTYPE svg PUBLIC "-//W3C//DTD SVG 1.1//EN" "http://www.w3.org/Graphics/SVG/1.1/DTD/svg11.dtd">
<!-- Creator: CorelDRAW -->
<svg xmlns="http://www.w3.org/2000/svg" xml:space="preserve" width="488px" height="316px" version="1.1" style="shape-rendering:geometricPrecision; text-rendering:geometricPrecision; image-rendering:optimizeQuality; fill-rule:evenodd; clip-rule:evenodd"
viewBox="0 0 488 316.52"
 xmlns:xlink="http://www.w3.org/1999/xlink"
 xmlns:xodm="http://www.corel.com/coreldraw/odm/2003">
 <defs>
  <style type="text/css">
   <![CDATA[
    .fil1 {fill:#7C8BC4}
    .fil0 {fill:white}
    .fil2 {fill:white;fill-rule:nonzero}
   ]]>
  </style>
 </defs>
 <g id="Katman_x0020_1">
  <metadata id="CorelCorpID_0Corel-Layer"/>
  <path class="fil0" d="M295.834 38.058c6.129,-12.465 13.682,-25.519 19.821,-38.058l-149.236 0c-20.538,-0.005 -21.407,2.052 -21.407,28.544 0,16.21 -0.97,112.635 0.994,123.487 1.865,10.303 16.878,18.754 25.483,24.468 4.11,2.728 12.081,9.02 15.545,9.827 0,-14.134 -1.123,-78.992 0.793,-87.216 6.905,-3.314 24.221,-1.586 34.093,-1.586l53.128 0.005c19.114,0.104 18.115,-7.856 28.682,-25.233 9.677,-15.913 9.771,-12.83 -8.865,-12.83 -15.404,0 -104.977,1.268 -107.038,-0.793 -1.849,-3.853 -0.793,-12.177 -0.793,-17.443 7.284,-4.878 10.445,-3.172 24.579,-3.172 28.074,0 56.147,0 84.221,0z"/>
  <path class="fil0" d="M207.649 192.669c0,5.776 3.11,10.613 8.242,11.637 10.642,2.121 14.526,-9.917 20.056,-19.81 1.338,-2.394 2.314,-4.125 3.754,-6.554 1.474,-2.484 2.334,-4.346 3.663,-6.645 0.382,-0.661 28.62,-49.445 29.3,-52.365l-65.015 0 0 73.737z"/>
  <path class="fil1" d="M295.834 38.058c30.325,0 24.894,3.176 40.008,-24.039 1.712,-3.083 6.727,-11.182 7.388,-14.019l-27.575 0c-6.139,12.539 -13.692,25.593 -19.821,38.058z"/>
  <path class="fil2" d="M0.062 315.769l-0.062 -43.809 32.982 0 0.125 8.136 -23.031 0 0.063 35.673 -10.077 0zm9.263 -16.021l0.063 -8.074 21.028 0.063 0 8.073 -21.091 -0.062z"/>
  <polygon id="_1" class="fil2" points="49.351,315.769 49.289,271.96 59.365,271.96 59.427,307.508 81.332,307.508 81.395,315.769 "/>
  <polygon id="_2" class="fil2" points="102.771,315.769 102.771,297.87 105.087,304.003 85.811,271.96 96.575,271.96 111.345,296.556 105.149,296.556 119.982,271.96 129.932,271.96 110.656,304.003 112.91,297.87 112.91,315.769 "/>
  <path id="_3" class="fil2" d="M194.868 316.52l-25.472 -23.657c-1.461,-1.335 -2.629,-2.587 -3.505,-3.755 -0.876,-1.168 -1.513,-2.316 -1.909,-3.442 -0.396,-1.126 -0.595,-2.295 -0.595,-3.505 0,-2.127 0.564,-4.005 1.69,-5.632 1.127,-1.627 2.712,-2.89 4.757,-3.787 2.044,-0.897 4.443,-1.345 7.197,-1.345 2.545,0 4.746,0.407 6.602,1.22 1.857,0.814 3.317,1.972 4.382,3.474 1.063,1.502 1.595,3.296 1.595,5.382 0,1.836 -0.459,3.515 -1.377,5.038 -0.917,1.523 -2.346,2.952 -4.286,4.287 -1.941,1.335 -4.475,2.691 -7.605,4.068 -2.127,0.96 -3.807,1.888 -5.038,2.785 -1.23,0.897 -2.117,1.804 -2.659,2.722 -0.543,0.918 -0.814,1.94 -0.814,3.067 0,1.043 0.323,1.982 0.97,2.816 0.647,0.835 1.554,1.481 2.723,1.94 1.168,0.459 2.544,0.689 4.13,0.689 2.545,0 4.881,-0.594 7.009,-1.784 2.128,-1.189 3.933,-2.962 5.414,-5.319 1.481,-2.358 2.535,-5.226 3.161,-8.606l7.823 2.441c-0.877,4.256 -2.441,7.948 -4.694,11.077 -2.253,3.13 -5.028,5.55 -8.324,7.26 -3.296,1.711 -6.989,2.566 -11.077,2.566 -3.213,0 -6.071,-0.521 -8.574,-1.564 -2.504,-1.043 -4.486,-2.462 -5.946,-4.256 -1.46,-1.794 -2.19,-3.86 -2.19,-6.196 0,-2.169 0.479,-4.12 1.439,-5.851 0.96,-1.732 2.482,-3.359 4.569,-4.882 2.086,-1.523 4.735,-3.015 7.948,-4.475 2.337,-1.085 4.172,-2.045 5.508,-2.879 1.334,-0.834 2.273,-1.638 2.815,-2.41 0.543,-0.771 0.814,-1.554 0.814,-2.346 0,-1.085 -0.365,-1.961 -1.095,-2.629 -0.73,-0.667 -1.805,-1.001 -3.223,-1.001 -1.502,0 -2.67,0.375 -3.505,1.126 -0.834,0.751 -1.251,1.711 -1.251,2.879 0,0.626 0.125,1.241 0.375,1.846 0.25,0.606 0.73,1.294 1.44,2.066 0.709,0.771 1.71,1.763 3.003,2.972l23.094 21.404 -5.319 6.196z"/>
  <path id="_4" class="fil2" d="M233.83 315.769l-0.063 -43.809 32.982 0 0.126 8.136 -23.032 0 0.063 35.673 -10.076 0zm9.262 -16.021l0.063 -8.074 21.028 0.063 0 8.073 -21.091 -0.062z"/>
  <path id="_5" class="fil2" d="M283.056 315.769l0 -43.809 18.713 0c6.092,0 10.827,1.408 14.207,4.224 3.379,2.817 5.069,6.707 5.069,11.673 0,3.254 -0.772,6.06 -2.316,8.417 -1.543,2.357 -3.734,4.162 -6.571,5.414 -2.837,1.251 -6.217,1.877 -10.139,1.877l-13.33 0 4.506 -4.443 0 16.647 -10.139 0zm27.85 0l-10.952 -15.896 10.827 0 11.078 15.896 -10.953 0zm-17.711 -15.521l-4.506 -4.756 12.767 0c3.129,0 5.466,-0.678 7.01,-2.034 1.543,-1.356 2.315,-3.223 2.315,-5.601 0,-2.421 -0.772,-4.298 -2.315,-5.633 -1.544,-1.335 -3.881,-2.003 -7.01,-2.003l-12.767 0 4.506 -4.819 0 24.846z"/>
  <path id="_6" class="fil2" d="M359.507 316.458c-3.38,0 -6.54,-0.553 -9.482,-1.659 -2.941,-1.106 -5.486,-2.681 -7.635,-4.725 -2.149,-2.044 -3.797,-4.454 -4.944,-7.228 -1.148,-2.775 -1.742,-5.769 -1.784,-8.981 0,-3.255 0.595,-6.248 1.784,-8.981 1.189,-2.733 2.858,-5.132 5.006,-7.197 2.149,-2.066 4.684,-3.662 7.605,-4.788 2.92,-1.127 6.07,-1.669 9.45,-1.627 3.504,-0.042 6.707,0.5 9.607,1.627 2.899,1.126 5.423,2.712 7.572,4.756 2.149,2.045 3.818,4.433 5.007,7.166 1.189,2.733 1.763,5.748 1.721,9.044 0.042,3.254 -0.532,6.269 -1.721,9.043 -1.189,2.775 -2.858,5.174 -5.007,7.197 -2.149,2.024 -4.673,3.599 -7.572,4.726 -2.9,1.126 -6.103,1.668 -9.607,1.627zm0 -8.512c2.003,-0.041 3.838,-0.396 5.507,-1.064 1.669,-0.667 3.119,-1.627 4.35,-2.879 1.231,-1.251 2.19,-2.733 2.879,-4.443 0.688,-1.711 1.053,-3.609 1.095,-5.695 -0.042,-2.087 -0.407,-3.985 -1.095,-5.695 -0.689,-1.711 -1.648,-3.193 -2.879,-4.444 -1.231,-1.252 -2.681,-2.222 -4.35,-2.91 -1.669,-0.689 -3.504,-1.033 -5.507,-1.033 -1.92,0.042 -3.713,0.396 -5.382,1.064 -1.669,0.668 -3.119,1.627 -4.35,2.879 -1.231,1.251 -2.19,2.722 -2.879,4.412 -0.688,1.69 -1.053,3.599 -1.095,5.727 0.042,2.044 0.407,3.932 1.095,5.663 0.689,1.732 1.648,3.224 2.879,4.475 1.231,1.252 2.67,2.222 4.318,2.91 1.648,0.689 3.453,1.033 5.414,1.033z"/>
  <polygon id="_7" class="fil2" points="408.983,315.769 408.921,280.221 394.902,280.221 394.902,271.96 433.016,271.96 433.078,280.221 418.997,280.221 419.059,315.769 "/>
  <path id="_8" class="fil2" d="M477.923 315.769l-0.062 -43.809 10.076 0 0.063 43.809 -10.077 0zm-30.04 0l-0.062 -43.809 10.076 0 0.062 43.809 -10.076 0zm9.263 -18.024l0.062 -8.512 21.467 0.063 -0.063 8.512 -21.466 -0.063z"/>
 </g>
</svg>
