<?xml version="1.0" encoding="UTF-8"?>
<!DOCTYPE svg PUBLIC "-//W3C//DTD SVG 1.1//EN" "http://www.w3.org/Graphics/SVG/1.1/DTD/svg11.dtd">
<!-- Creator: CorelDRAW -->
<svg xmlns="http://www.w3.org/2000/svg" xml:space="preserve" width="534px" height="343px" version="1.1" style="shape-rendering:geometricPrecision; text-rendering:geometricPrecision; image-rendering:optimizeQuality; fill-rule:evenodd; clip-rule:evenodd"
viewBox="0 0 617.817 396.449"
 xmlns:xlink="http://www.w3.org/1999/xlink"
 xmlns:xodm="http://www.corel.com/coreldraw/odm/2003">
 <defs>
  <style type="text/css">
   <![CDATA[
    .fil3 {fill:none}
    .fil0 {fill:#0F1B2D}
    .fil1 {fill:#7C8BC4}
    .fil2 {fill:#0F1B2D;fill-rule:nonzero}
   ]]>
  </style>
 </defs>
 <g id="Katman_x0020_1">
  <metadata id="CorelCorpID_0Corel-Layer"/>
  <g id="_2763597908256">
   <path class="fil0" d="M371.778 84.24c7.085,-14.409 15.816,-29.497 22.912,-43.991l-172.504 0c-23.74,-0.007 -24.746,2.371 -24.746,32.993 0,18.738 -1.121,130.197 1.15,142.741 2.155,11.91 19.509,21.678 29.456,28.283 4.751,3.154 13.964,10.426 17.969,11.359 0,-16.337 -1.299,-91.307 0.916,-100.814 7.982,-3.83 27.998,-1.833 39.41,-1.833l61.411 0.006c22.093,0.119 20.939,-9.082 33.153,-29.168 11.186,-18.394 11.294,-14.83 -10.247,-14.83 -17.805,0 -121.345,1.465 -123.727,-0.917 -2.137,-4.454 -0.916,-14.075 -0.916,-20.162 8.419,-5.639 12.073,-3.667 28.411,-3.667 32.451,0 64.901,0 97.352,0z"/>
   <path class="fil0" d="M269.843 262.957c0,6.676 3.595,12.268 9.528,13.451 12.301,2.453 16.791,-11.462 23.184,-22.898 1.546,-2.767 2.673,-4.768 4.339,-7.576 1.703,-2.871 2.697,-5.023 4.234,-7.681 0.441,-0.765 33.082,-57.154 33.868,-60.53l-75.153 0 0 85.234z"/>
   <path class="fil1" d="M371.778 84.24c35.054,0 28.776,3.671 46.246,-27.787 1.979,-3.564 7.776,-12.925 8.541,-16.204l-31.875 0c-7.096,14.494 -15.827,29.582 -22.912,43.991z"/>
  </g>
  <path class="fil2" d="M29.89 370.184l-0.072 -50.64 38.125 0 0.144 9.405 -26.621 0 0.072 41.235 -11.648 0zm10.707 -18.52l0.073 -9.332 24.307 0.073 0 9.332 -24.38 -0.073z"/>
  <polygon id="_1" class="fil2" points="86.864,370.184 86.792,319.544 98.439,319.544 98.512,360.635 123.832,360.635 123.904,370.184 "/>
  <polygon id="_2" class="fil2" points="148.613,370.184 148.613,349.494 151.29,356.584 129.008,319.544 141.451,319.544 158.524,347.975 151.362,347.975 168.507,319.544 180.01,319.544 157.728,356.584 160.333,349.494 160.333,370.184 "/>
  <path id="_3" class="fil2" d="M255.07 371.052l-29.444 -27.345c-1.688,-1.544 -3.038,-2.99 -4.051,-4.341 -1.012,-1.35 -1.748,-2.677 -2.206,-3.979 -0.458,-1.302 -0.688,-2.652 -0.688,-4.051 0,-2.46 0.651,-4.63 1.954,-6.511 1.302,-1.881 3.134,-3.34 5.498,-4.377 2.363,-1.037 5.136,-1.555 8.319,-1.555 2.942,0 5.486,0.47 7.632,1.411 2.146,0.94 3.835,2.279 5.064,4.015 1.23,1.736 1.845,3.81 1.845,6.221 0,2.122 -0.53,4.064 -1.591,5.824 -1.061,1.76 -2.713,3.412 -4.956,4.955 -2.243,1.544 -5.173,3.111 -8.789,4.702 -2.46,1.11 -4.401,2.183 -5.824,3.22 -1.423,1.037 -2.448,2.086 -3.075,3.147 -0.627,1.061 -0.94,2.242 -0.94,3.545 0,1.205 0.374,2.291 1.121,3.255 0.748,0.964 1.797,1.712 3.147,2.243 1.35,0.53 2.942,0.795 4.775,0.795 2.942,0 5.642,-0.687 8.102,-2.061 2.46,-1.375 4.546,-3.424 6.258,-6.149 1.712,-2.725 2.93,-6.041 3.653,-9.948l9.043 2.822c-1.013,4.919 -2.822,9.187 -5.426,12.804 -2.604,3.617 -5.811,6.415 -9.622,8.392 -3.81,1.978 -8.078,2.966 -12.804,2.966 -3.714,0 -7.017,-0.603 -9.911,-1.808 -2.894,-1.206 -5.185,-2.846 -6.873,-4.92 -1.688,-2.074 -2.532,-4.461 -2.532,-7.162 0,-2.508 0.555,-4.762 1.664,-6.764 1.109,-2.001 2.87,-3.882 5.281,-5.642 2.411,-1.761 5.474,-3.485 9.188,-5.173 2.701,-1.254 4.823,-2.363 6.366,-3.327 1.543,-0.965 2.628,-1.893 3.255,-2.786 0.628,-0.892 0.941,-1.796 0.941,-2.713 0,-1.254 -0.422,-2.267 -1.266,-3.038 -0.844,-0.772 -2.086,-1.157 -3.726,-1.157 -1.736,0 -3.087,0.434 -4.051,1.301 -0.965,0.869 -1.447,1.978 -1.447,3.328 0,0.724 0.145,1.435 0.434,2.135 0.289,0.699 0.844,1.494 1.664,2.387 0.82,0.892 1.977,2.037 3.472,3.436l26.695 24.741 -6.149 7.162z"/>
  <path id="_4" class="fil2" d="M300.108 370.184l-0.073 -50.64 38.125 0 0.144 9.405 -26.621 0 0.072 41.235 -11.647 0zm10.706 -18.52l0.073 -9.332 24.307 0.073 0 9.332 -24.38 -0.073z"/>
  <path id="_5" class="fil2" d="M357.009 370.184l0 -50.64 21.631 0c7.041,0 12.515,1.628 16.422,4.883 3.906,3.256 5.859,7.753 5.859,13.492 0,3.762 -0.892,7.005 -2.676,9.73 -1.785,2.725 -4.317,4.811 -7.596,6.258 -3.28,1.447 -7.186,2.17 -11.72,2.17l-15.409 0 5.209 -5.136 0 19.243 -11.72 0zm32.193 0l-12.66 -18.375 12.515 0 12.805 18.375 -12.66 0zm-20.473 -17.941l-5.209 -5.498 14.758 0c3.617,0 6.318,-0.784 8.102,-2.351 1.785,-1.568 2.677,-3.726 2.677,-6.475 0,-2.797 -0.892,-4.967 -2.677,-6.51 -1.784,-1.544 -4.485,-2.316 -8.102,-2.316l-14.758 0 5.209 -5.57 0 28.72z"/>
  <path id="_6" class="fil2" d="M445.38 370.98c-3.907,0 -7.56,-0.639 -10.96,-1.917 -3.4,-1.278 -6.342,-3.099 -8.826,-5.462 -2.484,-2.363 -4.389,-5.148 -5.715,-8.356 -1.326,-3.207 -2.014,-6.667 -2.062,-10.381 0,-3.762 0.688,-7.222 2.062,-10.381 1.375,-3.159 3.304,-5.932 5.788,-8.319 2.483,-2.388 5.413,-4.233 8.789,-5.535 3.376,-1.302 7.017,-1.929 10.924,-1.881 4.051,-0.048 7.753,0.579 11.104,1.881 3.352,1.302 6.27,3.135 8.754,5.498 2.484,2.363 4.413,5.125 5.787,8.284 1.375,3.159 2.038,6.643 1.99,10.453 0.048,3.762 -0.615,7.246 -1.99,10.454 -1.374,3.207 -3.303,5.98 -5.787,8.319 -2.484,2.339 -5.402,4.16 -8.754,5.462 -3.351,1.302 -7.053,1.929 -11.104,1.881zm0 -9.839c2.315,-0.048 4.437,-0.458 6.366,-1.23 1.929,-0.771 3.605,-1.881 5.028,-3.327 1.422,-1.447 2.532,-3.159 3.328,-5.137 0.795,-1.977 1.217,-4.171 1.266,-6.583 -0.049,-2.411 -0.471,-4.606 -1.266,-6.583 -0.796,-1.977 -1.906,-3.689 -3.328,-5.136 -1.423,-1.447 -3.099,-2.568 -5.028,-3.364 -1.929,-0.796 -4.051,-1.194 -6.366,-1.194 -2.219,0.048 -4.293,0.458 -6.222,1.23 -1.929,0.771 -3.605,1.881 -5.028,3.328 -1.422,1.447 -2.531,3.146 -3.327,5.1 -0.796,1.953 -1.218,4.16 -1.266,6.619 0.048,2.364 0.47,4.546 1.266,6.547 0.796,2.002 1.905,3.726 3.327,5.173 1.423,1.446 3.087,2.568 4.992,3.363 1.905,0.796 3.991,1.194 6.258,1.194z"/>
  <polygon id="_7" class="fil2" points="502.571,370.184 502.498,329.093 486.294,329.093 486.294,319.544 530.35,319.544 530.423,329.093 514.146,329.093 514.218,370.184 "/>
  <path id="_8" class="fil2" d="M582.261 370.184l-0.073 -50.64 11.647 0 0.073 50.64 -11.647 0zm-34.725 0l-0.072 -50.64 11.647 0 0.072 50.64 -11.647 0zm10.707 -20.834l0.072 -9.839 24.814 0.072 -0.073 9.839 -24.813 -0.072z"/>
  <rect class="fil3" width="617.817" height="396.449"/>
 </g>
</svg>
